<?xml version="1.0" encoding="utf-8"?>
<!-- Generator: Adobe Illustrator 23.0.3, SVG Export Plug-In . SVG Version: 6.00 Build 0)  -->
<svg version="1.1" id="图层_1" xmlns="http://www.w3.org/2000/svg" xmlns:xlink="http://www.w3.org/1999/xlink" x="0px" y="0px"
	 width="32px" height="32px" viewBox="0 0 32 32" style="enable-background:new 0 0 32 32;" xml:space="preserve">
<g>
	<path style="fill:#0052D9;" d="M29.858,18.001C28.887,24.785,23.053,30,16,30C8.268,30,2,23.732,2,16S8.268,2,16,2
		c6.702,0,12.305,4.71,13.678,11l2.041,0C30.315,5.597,23.811,0,16,0C7.163,0,0,7.163,0,16s7.163,16,16,16
		c8.159,0,14.892-6.107,15.876-13.999L29.858,18.001z"/>
	<path style="fill:#0052D9;" d="M10.125,24.5H9V26h1h10h1v-1.5h-1.125L19,14V9h1l-5-5l-5,5h1v5L10.125,24.5z M15.5,24.119V24.5h-1
		v-0.381V23c0-0.276,0.224-0.5,0.5-0.5s0.5,0.224,0.5,0.5V24.119z M17,24.5V23c0-1.105-0.895-2-2-2c-1.105,0-2,0.895-2,2v1.5h-1.37
		l0.75-9h5.24l0.75,9H17z M15.5,14h-1v-1c0-0.276,0.224-0.5,0.5-0.5s0.5,0.224,0.5,0.5V14z M15,6.121L16.379,7.5h-2.757L15,6.121z
		 M12.5,9h5v5H17v-1c0-1.105-0.895-2-2-2c-1.105,0-2,0.895-2,2v1h-0.5V9z"/>
	
		<rect x="22.25" y="10.459" transform="matrix(0.1644 -0.9864 0.9864 0.1644 5.9025 33.9677)" style="fill:#0052D9;" width="1.501" height="6.083"/>
	
		<rect x="19.959" y="9.75" transform="matrix(0.9864 -0.1644 0.1644 0.9864 -1.4132 3.924)" style="fill:#0052D9;" width="6.083" height="1.501"/>
</g>
</svg>
