<?xml version="1.0" standalone="no"?><!DOCTYPE svg PUBLIC "-//W3C//DTD SVG 1.1//EN" "http://www.w3.org/Graphics/SVG/1.1/DTD/svg11.dtd"><svg t="1744357086403" class="icon" viewBox="0 0 1024 1024" version="1.1" xmlns="http://www.w3.org/2000/svg" p-id="2714" xmlns:xlink="http://www.w3.org/1999/xlink" width="200" height="200"><path d="M531.904 191.36c-8.682667-25.237333 15.466667-49.386667 40.682667-40.704a329.386667 329.386667 0 0 1 125.824 78.805333c129.130667 129.130667 129.130667 338.496 0 467.626667-129.130667 129.130667-338.496 129.130667-467.626667 0a329.450667 329.450667 0 0 1-78.784-125.802667c-8.704-25.216 15.466667-49.386667 40.682667-40.682666a266.666667 266.666667 0 0 0 275.690666-63.573334A266.666667 266.666667 0 0 0 531.904 191.36z m76.16 47.061333l0.384 3.072c10.453333 92.906667-18.773333 187.541333-83.584 258.986667l-5.994667 6.442667-5.248 5.376a330.432 330.432 0 0 1-262.378666 95.658666l-8.405334-0.853333-3.072-0.362667 3.2 4.906667c6.4 9.536 13.44 18.688 21.12 27.413333l5.845334 6.464 6.101333 6.314667c104.149333 104.128 272.981333 104.128 377.130667 0 104.128-104.149333 104.128-273.002667 0-377.130667-9.941333-9.941333-20.544-18.986667-31.701334-27.136l-8.469333-5.930666-4.906667-3.221334z m-185.6 144.405334a32 32 0 0 1-27.2 33.322666l-3.072 0.298667-62.378667 3.264a32 32 0 0 1-6.4-63.594667l3.050667-0.32 62.378667-3.264a32 32 0 0 1 33.642666 30.293334z m-24.810667-150.101334l2.56 2.069334 46.4 41.792a32 32 0 0 1-40.277333 49.621333l-2.538667-2.069333-46.421333-41.792a32 32 0 0 1 40.277333-49.621334z" fill="#ffffff" p-id="2715"></path></svg>